# xmcd
#
# Track frame offsets: 
#        150
#        16919
#        32970
#        50901
#        69476
#        85530
#        103303
#        125677
#        145055
#        165278
#        180191
#        194829
#        210205
#
# Disc length: 3065 seconds
#
# Revision: 2
# Processed by: cddbd v1.5.2PL0 Copyright (c) Steve Scherf et al.
# Submitted via: ExactAudioCopy v0.95a4
#
DISCID=af0bf70d
DTITLE=Nik P. - Der Junge mit der Luftgitarre
DYEAR=2011
DGENRE=Rock
TTITLE0=Wo die Liebe deinen Namen ruft
TTITLE1=Wir zwei
TTITLE2=Der Junge mit der Luftgitarre
TTITLE3=Es ist mehr als Liebe
TTITLE4=Der Spiegel an der Wand
TTITLE5=Im nächsten Leben
TTITLE6=Mein Herz
TTITLE7=Hallo wie gehts
TTITLE8=Der Fremde
TTITLE9=Alles was ich brauch bist Du
TTITLE10=Geheim
TTITLE11=Wir sind die Besten
TTITLE12=Ireen 2011
EXTD=YEAR: 2011
EXTT0=
EXTT1=
EXTT2=
EXTT3=
EXTT4=
EXTT5=
EXTT6=
EXTT7=
EXTT8=
EXTT9=
EXTT10=
EXTT11=
EXTT12=
PLAYORDER=
